<svg width="150" height="70" viewBox="0 0 150 70" fill="none" xmlns="http://www.w3.org/2000/svg">
<path d="M120.391 23.3438H114.609C113.724 23.3438 112.874 22.9918 112.248 22.3654C111.621 21.739 111.269 20.8894 111.269 20.0035C111.269 19.1176 111.621 18.268 112.248 17.6416C112.874 17.0151 113.724 16.6632 114.609 16.6632H123.859V14.3507H118.945V10.0469H116.633V14.3507H114.609C113.11 14.3507 111.672 14.9463 110.612 16.0064C109.552 17.0665 108.957 18.5043 108.957 20.0035C108.957 21.5027 109.552 22.9405 110.612 24.0006C111.672 25.0607 113.11 25.6562 114.609 25.6562H120.391C121.276 25.6572 122.125 26.0095 122.752 26.6357C123.378 27.2619 123.73 28.1109 123.731 28.9965V29.2535C123.73 30.1391 123.378 30.9881 122.752 31.6143C122.125 32.2405 121.276 32.5928 120.391 32.5938H110.605V34.9062H116.633V38.9531H118.945V34.9062H120.391C121.889 34.9046 123.326 34.3085 124.386 33.2487C125.446 32.189 126.042 30.7522 126.043 29.2535V28.9965C126.042 27.4978 125.446 26.061 124.386 25.0013C123.326 23.9415 121.889 23.3454 120.391 23.3438V23.3438Z" fill="#FFC700"/>
<path d="M84.248 16.776V32H82.246V20.648L77.186 32H75.778L70.696 20.626V32H68.694V16.776H70.85L76.482 29.36L82.114 16.776H84.248ZM98.0272 19.944L90.7672 37.676H88.6992L91.0752 31.868L86.2132 19.944H88.4352L92.2192 29.712L95.9592 19.944H98.0272ZM87.966 39.666L83.522 55H81.278L77.714 42.658L74.018 55L71.796 55.022L67.506 39.666H69.64L72.984 52.668L76.68 39.666H78.924L82.444 52.624L85.81 39.666H87.966ZM89.4089 48.928C89.4089 47.696 89.6582 46.618 90.1569 45.694C90.6556 44.7553 91.3376 44.0293 92.2029 43.516C93.0829 43.0027 94.0582 42.746 95.1289 42.746C96.1849 42.746 97.1016 42.9733 97.8789 43.428C98.6562 43.8827 99.2356 44.4547 99.6169 45.144V42.944H101.641V55H99.6169V52.756C99.2209 53.46 98.6269 54.0467 97.8349 54.516C97.0576 54.9707 96.1482 55.198 95.1069 55.198C94.0362 55.198 93.0682 54.934 92.2029 54.406C91.3376 53.878 90.6556 53.1373 90.1569 52.184C89.6582 51.2307 89.4089 50.1453 89.4089 48.928ZM99.6169 48.95C99.6169 48.0407 99.4336 47.2487 99.0669 46.574C98.7002 45.8993 98.2016 45.386 97.5709 45.034C96.9549 44.6673 96.2729 44.484 95.5249 44.484C94.7769 44.484 94.0949 44.66 93.4789 45.012C92.8629 45.364 92.3716 45.8773 92.0049 46.552C91.6382 47.2267 91.4549 48.0187 91.4549 48.928C91.4549 49.852 91.6382 50.6587 92.0049 51.348C92.3716 52.0227 92.8629 52.5433 93.4789 52.91C94.0949 53.262 94.7769 53.438 95.5249 53.438C96.2729 53.438 96.9549 53.262 97.5709 52.91C98.2016 52.5433 98.7002 52.0227 99.0669 51.348C99.4336 50.6587 99.6169 49.8593 99.6169 48.95ZM107.026 38.72V55H105.024V38.72H107.026ZM112.44 38.72V55H110.438V38.72H112.44ZM126.852 48.51C126.852 48.8913 126.83 49.2947 126.786 49.72H117.15C117.224 50.908 117.627 51.8393 118.36 52.514C119.108 53.174 120.01 53.504 121.066 53.504C121.932 53.504 122.65 53.306 123.222 52.91C123.809 52.4993 124.22 51.9567 124.454 51.282H126.61C126.288 52.4407 125.642 53.3867 124.674 54.12C123.706 54.8387 122.504 55.198 121.066 55.198C119.922 55.198 118.896 54.9413 117.986 54.428C117.092 53.9147 116.388 53.1887 115.874 52.25C115.361 51.2967 115.104 50.1967 115.104 48.95C115.104 47.7033 115.354 46.6107 115.852 45.672C116.351 44.7333 117.048 44.0147 117.942 43.516C118.852 43.0027 119.893 42.746 121.066 42.746C122.21 42.746 123.222 42.9953 124.102 43.494C124.982 43.9927 125.657 44.682 126.126 45.562C126.61 46.4273 126.852 47.41 126.852 48.51ZM124.784 48.092C124.784 47.3293 124.616 46.6767 124.278 46.134C123.941 45.5767 123.479 45.1587 122.892 44.88C122.32 44.5867 121.682 44.44 120.978 44.44C119.966 44.44 119.101 44.7627 118.382 45.408C117.678 46.0533 117.275 46.948 117.172 48.092H124.784ZM131.937 44.594V51.7C131.937 52.2867 132.061 52.7047 132.311 52.954C132.56 53.1887 132.993 53.306 133.609 53.306H135.083V55H133.279C132.164 55 131.328 54.7433 130.771 54.23C130.213 53.7167 129.935 52.8733 129.935 51.7V44.594H128.373V42.944H129.935V39.908H131.937V42.944H135.083V44.594H131.937Z" fill="#F9F9F9"/>
<path d="M17.108 28.9121H12.7991C12.7991 32.6796 13.9603 34.9964 17.108 34.9964C20.2091 34.9964 21.417 32.1352 21.417 28.9121H17.108Z" fill="#D3627F"/>
<path d="M17.108 30.765H21.2686C21.3688 30.1743 21.417 29.5506 21.417 28.9121H17.108H12.7991C12.7991 29.5769 12.8361 30.1953 12.913 30.765H17.108Z" fill="#FF88A4"/>
<path d="M41.505 48.4993L42.641 50.2692L40.8234 53.3602H45.9191L48.1262 49.7989C48.1911 48.4886 48.1262 45.364 48.1262 45.364L41.505 48.4993Z" fill="#E2748C"/>
<path d="M41.3431 21.6614H36.1962C27.8999 21.6614 20.7742 26.8446 17.6731 34.2528C15.1506 34.5013 13.3314 36.2231 13.3314 40.4695C13.3314 44.7149 16.5587 48.1793 20.612 48.3791C20.9842 48.4575 21.3696 48.4988 21.7641 48.4988H32.0754L29.817 53.3596H34.1929L36.4515 48.4988H48.5763L49.7123 50.2687L47.8946 53.3597H52.9904L55.1975 49.7984C55.2409 48.9213 55.2262 47.2323 55.2117 46.2105C57.0987 44.5071 58.2928 42.0018 58.2928 39.2065C58.2925 29.5166 50.704 21.6614 41.3431 21.6614Z" fill="#FFA4BC"/>
<path d="M57.5312 33.9917V38.3826C57.5312 42.2381 54.5119 45.3635 50.7873 45.3635H19.5959C16.7732 45.3635 14.357 43.5678 13.3517 41.0204C13.6169 45.0106 16.7355 48.1881 20.6119 48.3791C20.9841 48.4575 21.3694 48.4989 21.764 48.4989H32.0753L29.8169 53.3596H34.1928L36.4514 48.4989H48.5762L49.7122 50.2688L47.8945 53.3598H52.9903L55.1974 49.7985C55.2408 48.9214 55.2261 47.2323 55.2116 46.2105C57.0986 44.5071 58.2927 42.0018 58.2927 39.2065C58.2926 37.3906 58.0259 35.6391 57.5312 33.9917Z" fill="#F288A9"/>
<path d="M55.2114 48.8568C55.2129 48.969 55.2144 49.0902 55.2158 49.2164C55.218 49.0986 55.2198 48.9746 55.2211 48.8469C55.2178 48.8502 55.2149 48.8537 55.2114 48.8568Z" fill="#FFD2E0"/>
<path d="M41.3431 21.6614H36.1962C27.8999 21.6614 20.7742 26.8446 17.6731 34.2528C15.1506 34.5013 13.3314 36.2231 13.3314 40.4695C13.3314 40.8672 13.3596 41.2581 13.4144 41.6401C13.797 38.4618 15.4658 37.1161 17.6732 36.8986C20.7743 29.4904 27.9002 24.3072 36.1964 24.3072H41.3432C50.2043 24.3072 57.4759 31.3463 58.2273 40.317C58.2694 39.9527 58.2927 39.5825 58.2927 39.2063C58.2925 29.5166 50.704 21.6614 41.3431 21.6614Z" fill="#FFD2E0"/>
<path d="M32.2802 35.8181C32.1016 30.5169 28.505 26.2647 24.6786 25.4009C21.6175 27.6083 19.1733 30.6689 17.6731 34.253C15.1506 34.5016 13.3314 36.2234 13.3314 40.4698C13.3314 44.7152 16.5587 48.1796 20.612 48.3794C29.4756 48.3794 32.501 42.3736 32.2802 35.8181Z" fill="#FFC5D7"/>
<path d="M19.5959 45.3634C16.7732 45.3634 14.357 43.5677 13.3517 41.0203C13.6169 45.0105 16.7355 48.188 20.6119 48.379C24.506 48.379 27.2724 47.2193 29.1325 45.3636L29.1329 45.3632H19.5959V45.3634Z" fill="#FFB3CB"/>
<path d="M15.6663 41.5073C15.6663 37.2609 17.4855 35.5389 20.008 35.2906C21.5082 31.7066 23.9524 28.646 27.0136 26.4384C27.0808 26.4536 27.1479 26.4723 27.215 26.4895C26.4062 25.9702 25.5486 25.5968 24.6786 25.4004C21.6175 27.6079 19.1733 30.6684 17.6731 34.2526C15.1506 34.5011 13.3314 36.2229 13.3314 40.4693C13.3314 44.1979 15.8211 47.3234 19.1731 48.1646C17.0633 46.7548 15.6663 44.3003 15.6663 41.5073Z" fill="white"/>
<path d="M14.4008 44.4938H13.1685C11.2192 44.4938 9.63892 42.858 9.63892 40.8403V39.6708C9.63892 38.3361 10.6842 37.2542 11.9737 37.2542H14.4008C16.1825 37.2542 17.627 38.7492 17.627 40.5937V41.1545C17.627 42.9988 16.1825 44.4938 14.4008 44.4938Z" fill="#FF88A4"/>
<path d="M14.4008 37.2537H11.9737C11.3968 37.2537 10.8696 37.4713 10.4623 37.8303H12.2382C13.7362 37.8303 14.9505 39.0872 14.9505 40.6379V41.1093C14.9505 42.6599 13.7362 43.9169 12.2382 43.9169H11.2665C11.8155 44.2813 12.468 44.4935 13.1686 44.4935H14.4009C16.1826 44.4935 17.6271 42.9985 17.6271 41.154V40.5932C17.627 38.7489 16.1825 37.2537 14.4008 37.2537Z" fill="#D3627F"/>
<path d="M27.1408 53.3598H22.7651L24.953 48.499H29.3288L27.1408 53.3598Z" fill="#E2748C"/>
<path d="M22.056 28.2502H17.747C17.747 32.0178 18.9081 34.3345 22.056 34.3345C25.1571 34.3345 26.3649 31.4734 26.3649 28.2502H22.056Z" fill="#FF88A4"/>
<path d="M22.056 30.1036H26.2165C26.3167 29.513 26.3649 28.8892 26.3649 28.2507H22.056H17.747C17.747 28.9155 17.7841 29.534 17.8609 30.1036H22.056Z" fill="#FFB6CD"/>
<path d="M61.9195 27.1949C61.815 27.0477 61.6153 27.0157 61.4728 27.1238C61.3305 27.2318 61.2998 27.4388 61.404 27.586C61.7741 28.1086 62.0283 29.0918 61.7698 29.8846C61.5736 30.4857 61.1201 30.9002 60.4212 31.1172C60.4536 31.0497 60.4817 30.9814 60.5047 30.913C60.7337 30.2361 60.5445 29.306 60.0648 28.7493C59.7101 28.3376 59.2382 28.1759 58.7374 28.2931C58.381 28.3766 58.1198 28.6566 58.0021 29.0812C57.8014 29.8052 58.0554 30.7413 58.6059 31.3069C58.7401 31.4446 58.8877 31.5572 59.0462 31.6441C58.9908 31.6755 58.9329 31.7051 58.8729 31.7322C58.5419 31.8814 58.0369 32.0004 57.4137 31.8116C54.67 25.4473 48.4991 21 41.3431 21H36.1962C30.4172 21 25.1028 23.3394 21.2141 27.589H17.7472C17.3943 27.589 17.1082 27.8851 17.1082 28.2504H12.7992C12.4463 28.2504 12.1602 28.5466 12.1602 28.9119C12.1602 32.0069 12.9238 34.0002 14.483 34.9747C14.0341 35.4154 13.6667 35.9568 13.3848 36.5923H11.9736C10.3339 36.5923 9 37.9732 9 39.6706V40.84C9 43.2193 10.87 45.1551 13.1685 45.1551H14.0401C15.4856 47.4482 17.8815 48.8883 20.5305 49.0358C20.9352 49.1179 21.3497 49.1605 21.764 49.1605H23.9503L22.1859 53.0805C22.0937 53.2854 22.1089 53.5247 22.2263 53.7154C22.3435 53.9059 22.5467 54.0213 22.7651 54.0213H27.141C27.3894 54.0213 27.6153 53.8723 27.7203 53.6391L29.7362 49.1604H31.0589L29.2409 53.0729C29.1457 53.278 29.1588 53.5191 29.2758 53.7117C29.3927 53.9042 29.597 54.0211 29.8167 54.0211H34.1926C34.4381 54.0211 34.6619 53.8754 34.7683 53.6464L36.8528 49.1604H37.7977H41.1625L41.884 50.2842L40.2777 53.0157C40.1577 53.2199 40.1534 53.4752 40.2665 53.6836C40.3796 53.892 40.5927 54.0211 40.8235 54.0211H45.9191C46.1367 54.0211 46.3394 53.9065 46.457 53.7168L48.6641 50.1555C48.7018 50.0947 48.7282 50.0277 48.745 49.9581L48.9544 50.2844L47.3481 53.0159C47.228 53.2201 47.2238 53.4754 47.3369 53.6838C47.4502 53.8921 47.6631 54.0213 47.894 54.0213H52.9897C53.2073 54.0213 53.41 53.9067 53.5276 53.717L55.7346 50.1557C55.7945 50.0588 55.8291 49.9475 55.8349 49.8324C55.8739 49.0446 55.868 47.6412 55.8539 46.5016C57.8132 44.6189 58.9312 41.9777 58.9312 39.2065C58.9312 36.8585 58.4994 34.613 57.714 32.5504C57.8292 32.565 57.941 32.5724 58.0481 32.5724C58.4852 32.5724 58.8521 32.4629 59.128 32.3386C59.3925 32.2192 59.64 32.0538 59.8531 31.8602C60.0867 31.8671 60.3356 31.8329 60.5894 31.7554C61.7318 31.4063 62.1909 30.6603 62.3751 30.0961C62.7218 29.0338 62.3818 27.8474 61.9195 27.1949ZM25.7066 28.9119C25.5997 30.7273 24.9756 33.6733 22.056 33.6733C20.4291 33.6733 18.5732 33.1143 18.3993 28.9119H25.7066ZM13.4515 29.5734H17.1631C17.2588 30.6856 17.4815 31.6287 17.8307 32.4003C17.6208 32.8064 17.4205 33.2216 17.2357 33.6425C16.6783 33.7305 16.1687 33.8904 15.7065 34.1153C14.2986 33.6083 13.5574 32.1201 13.4515 29.5734ZM10.3518 41.5028C10.3922 41.5086 10.4331 41.5126 10.475 41.5126H10.7764C11.2718 41.5126 11.6733 41.0968 11.6733 40.5842C11.6733 40.0716 11.2718 39.6558 10.7764 39.6558H10.475C10.4072 39.6558 10.3414 39.6643 10.2778 39.679V39.6706C10.2778 38.7027 11.0386 37.9152 11.9734 37.9152H14.4005C15.8271 37.9152 16.9877 39.1166 16.9877 40.5933V41.1542C16.9877 42.6309 15.8271 43.8323 14.4005 43.8323H13.1684C11.7948 43.8323 10.6442 42.8343 10.3518 41.5028ZM15.4977 44.99C17.0962 44.4992 18.2657 42.966 18.2657 41.1542V40.5933C18.2657 38.534 16.755 36.8339 14.8207 36.6164C15.4416 35.6041 16.4013 35.0426 17.7334 34.9115C17.92 34.8932 18.086 34.7903 18.1922 34.6358C18.218 34.5985 18.2411 34.5591 18.2592 34.5161C18.3231 34.3637 18.3894 34.2117 18.4573 34.0602C18.5178 33.9251 18.5798 33.7907 18.6432 33.6567C19.4589 34.5472 20.5973 34.9963 22.056 34.9963C25.1544 34.9963 27.004 32.4745 27.004 28.2506C27.004 27.8853 26.7178 27.5891 26.365 27.5891H23.0581C23.6158 27.0644 24.1998 26.5688 24.8107 26.1142C28.0831 27.0115 31.472 30.8124 31.6414 35.8412C31.7288 38.4351 31.3244 42.0723 28.902 44.6689C27.0171 46.6891 24.2332 47.7149 20.6272 47.7179C18.5991 47.6135 16.7439 46.6116 15.4977 44.99ZM26.7337 52.6984H25.6723L26.337 51.2091C26.411 51.0432 26.3411 50.8468 26.1809 50.7702C26.021 50.6936 25.8307 50.7659 25.7569 50.9318L24.9684 52.6985H23.7679L25.3603 49.1607H28.3261L26.7337 52.6984ZM45.5699 52.6984H44.2302L44.895 51.2091C44.9691 51.0432 44.8991 50.8468 44.7389 50.7702C44.579 50.6936 44.3889 50.7659 44.3149 50.9318L43.5264 52.6985H41.9607L43.1872 50.6129C43.3163 50.3937 43.3109 50.1168 43.1736 49.903L42.6973 49.1609H47.5074C47.5043 49.3198 47.5005 49.4653 47.4959 49.5916L45.5699 52.6984ZM54.7914 45.7122C54.6497 45.84 54.5697 46.0259 54.5724 46.2203C54.585 47.1125 54.5998 48.6843 54.5663 49.5913L52.6407 52.6985H51.2866L51.9512 51.2092C52.0253 51.0434 51.9553 50.8469 51.7951 50.7704C51.6352 50.6938 51.4451 50.7661 51.3711 50.9319L50.5827 52.6987H49.0311L50.2576 50.6131C50.3866 50.3938 50.3813 50.117 50.2441 49.9032L49.1082 48.1335C48.9899 47.9489 48.79 47.8379 48.5759 47.8379H37.7977H36.451H35.3415C34.9886 47.8379 34.7025 48.1341 34.7025 48.4994C34.7025 48.8647 34.9886 49.1609 35.3415 49.1609H35.4347L33.7908 52.6987H32.694L33.3587 51.2094C33.4327 51.0435 33.3628 50.8471 33.2026 50.7705C33.0425 50.694 32.8524 50.7662 32.7786 50.9321L31.9901 52.6989H30.833L32.651 48.7863C32.7462 48.5813 32.7331 48.3402 32.6162 48.1475C32.4992 47.9549 32.2949 47.8381 32.0753 47.8381H29.329H26.6968C27.8963 47.28 28.9417 46.5314 29.8215 45.5883C31.9855 43.2687 33.0566 39.8824 32.9189 35.7956C32.8304 33.1694 31.9177 30.5912 30.3488 28.536C29.1662 26.9867 27.6992 25.8282 26.1247 25.1758C29.1012 23.3158 32.5494 22.3236 36.1964 22.3236H41.3434C50.337 22.3236 57.6538 29.8975 57.6538 39.2072C57.6535 41.6989 56.6103 44.0703 54.7914 45.7122ZM59.9017 30.6945C59.8526 30.8396 59.7576 31.0059 59.621 31.1681C59.4095 31.1167 59.2206 31.0066 59.0561 30.8376C58.6294 30.3992 58.4975 29.6931 58.6163 29.2638C58.6521 29.135 58.7265 28.9739 58.8786 28.9384C58.9372 28.9246 58.9943 28.9179 59.0496 28.9179C59.2516 28.9179 59.4322 29.0088 59.5881 29.1899C59.9082 29.5613 60.052 30.2504 59.9017 30.6945Z" fill="#402943"/>
<path d="M13.5024 39.6558H13.201C12.7058 39.6558 12.3041 40.0715 12.3041 40.5841C12.3041 41.0969 12.7058 41.5125 13.201 41.5125H13.5024C13.9978 41.5125 14.3993 41.0968 14.3993 40.5841C14.3993 40.0713 13.9977 39.6558 13.5024 39.6558Z" fill="#402943"/>
<path d="M21.2088 38.6259C21.5617 38.6259 21.8478 38.3298 21.8478 37.9644C21.8478 37.5991 21.5617 37.303 21.2088 37.303C20.8559 37.303 20.5698 37.5991 20.5698 37.9644C20.5698 38.3298 20.8559 38.6259 21.2088 38.6259Z" fill="#402943"/>
<path d="M37.4979 26.1393C37.7749 26.0172 38.0174 25.7623 38.2977 25.672C38.4242 25.6313 38.5557 25.6192 38.6796 25.5732C39.0057 25.4518 39.39 25.4572 39.7219 25.353C40.227 25.1946 40.7302 25.0963 41.2675 25.0879C42.1536 25.0741 43.041 25.0879 43.9273 25.0879C44.1808 25.0879 44.4222 25.1999 44.6641 25.2092C44.8692 25.2171 45.1169 25.2214 45.3111 25.2811C45.4567 25.3259 45.6086 25.2781 45.7469 25.3395C45.8703 25.3944 45.9949 25.4805 46.1198 25.5238C46.2219 25.5591 46.2857 25.5025 46.3445 25.6136C46.3781 25.677 46.4525 25.6507 46.5152 25.654C46.674 25.6624 46.8991 25.7617 47.0409 25.8248C47.1753 25.8845 47.2957 25.9028 47.4363 25.9461C47.5941 25.9947 47.7501 26.1327 47.9215 26.1393C48.0634 26.1447 48.1932 26.31 48.3349 26.3729C48.465 26.4308 48.6379 26.4628 48.7797 26.4628" stroke="#402943"/>
</svg>
