<svg width="134" height="63" viewBox="0 0 134 63" fill="none" xmlns="http://www.w3.org/2000/svg">
<rect width="133.438" height="63" fill="#1AACF0"/>
<rect x="29.5555" y="11" width="20.4444" height="19.5379" rx="9.76894" fill="#FFFBFB"/>
<path d="M36.5834 22.6141C36.6805 23.779 37.6439 24.6863 39.3715 24.7938V25.6535H40.1382V24.7877C41.927 24.668 42.9723 23.7546 42.9723 22.4285C42.9723 21.2232 42.1724 20.6017 40.7425 20.2793L40.1382 20.1426V17.8017C40.9048 17.8847 41.3929 18.2852 41.5105 18.8396H42.8547C42.7576 17.7174 41.7507 16.8394 40.1382 16.7442V15.8845H39.3715V16.7625C37.8445 16.9054 36.8032 17.7834 36.8032 19.0252C36.8032 20.1242 37.5775 20.8227 38.8642 21.1097L39.3715 21.2293V23.7131C38.5857 23.5995 38.0656 23.188 37.948 22.6141H36.5834V22.6141ZM39.3651 19.9692C38.6112 19.8019 38.2023 19.4612 38.2023 18.9483C38.2023 18.3744 38.6432 17.9445 39.3715 17.8188V19.9679H39.3651V19.9692ZM40.2493 21.426C41.1655 21.6287 41.5884 21.9571 41.5884 22.5372C41.5884 23.199 41.062 23.6533 40.1382 23.7363V21.4015L40.2493 21.426V21.426Z" fill="#FFC700"/>
<path d="M39.7778 29.3168C37.4055 29.3168 35.1305 28.4162 33.4531 26.8132C31.7757 25.2101 30.8333 23.036 30.8333 20.7689C30.8333 18.5019 31.7757 16.3277 33.4531 14.7247C35.1305 13.1217 37.4055 12.2211 39.7778 12.2211C42.15 12.2211 44.425 13.1217 46.1024 14.7247C47.7798 16.3277 48.7222 18.5019 48.7222 20.7689C48.7222 23.036 47.7798 25.2101 46.1024 26.8132C44.425 28.4162 42.15 29.3168 39.7778 29.3168ZM39.7778 30.5379C42.4889 30.5379 45.0889 29.5086 47.006 27.6766C48.923 25.8446 50 23.3598 50 20.7689C50 18.1781 48.923 15.6933 47.006 13.8613C45.0889 12.0292 42.4889 11 39.7778 11C37.0667 11 34.4666 12.0292 32.5496 13.8613C30.6325 15.6933 29.5555 18.1781 29.5555 20.7689C29.5555 23.3598 30.6325 25.8446 32.5496 27.6766C34.4666 29.5086 37.0667 30.5379 39.7778 30.5379V30.5379Z" fill="#FFC700"/>
<path d="M39.7778 27.485C37.9139 27.485 36.1263 26.7774 34.8084 25.5179C33.4904 24.2583 32.75 22.5501 32.75 20.7688C32.75 18.9876 33.4904 17.2793 34.8084 16.0198C36.1263 14.7603 37.9139 14.0527 39.7778 14.0527C41.6416 14.0527 43.4292 14.7603 44.7471 16.0198C46.0651 17.2793 46.8055 18.9876 46.8055 20.7688C46.8055 22.5501 46.0651 24.2583 44.7471 25.5179C43.4292 26.7774 41.6416 27.485 39.7778 27.485ZM39.7778 28.0955C40.7846 28.0955 41.7815 27.906 42.7117 27.5378C43.6418 27.1696 44.487 26.6299 45.1989 25.9496C45.9108 25.2693 46.4755 24.4616 46.8608 23.5726C47.2461 22.6837 47.4444 21.731 47.4444 20.7688C47.4444 19.8067 47.2461 18.8539 46.8608 17.965C46.4755 17.0761 45.9108 16.2684 45.1989 15.5881C44.487 14.9077 43.6418 14.3681 42.7117 13.9999C41.7815 13.6316 40.7846 13.4421 39.7778 13.4421C37.7444 13.4421 35.7944 14.2141 34.3566 15.5881C32.9188 16.9621 32.1111 18.8257 32.1111 20.7688C32.1111 22.712 32.9188 24.5756 34.3566 25.9496C35.7944 27.3236 37.7444 28.0955 39.7778 28.0955V28.0955Z" fill="#FFC700"/>
<path d="M9.20715 30.4631H5.37695C5.37695 33.6635 6.40916 35.6316 9.20715 35.6316C11.9637 35.6316 13.0373 33.2011 13.0373 30.4631H9.20715Z" fill="#D3627F"/>
<path d="M9.20715 32.0371H12.9054C12.9945 31.5354 13.0373 31.0055 13.0373 30.4631H9.20715H5.37695C5.37695 31.0278 5.4099 31.5532 5.4782 32.0371H9.20715Z" fill="#FF88A4"/>
<path d="M30.8935 47.1021L31.9032 48.6056L30.2875 51.2313H34.8171L36.779 48.2061C36.8366 47.093 36.779 44.4387 36.779 44.4387L30.8935 47.1021Z" fill="#E2748C"/>
<path d="M30.7494 24.304H26.1744C18.7999 24.304 12.4659 28.7069 9.7094 35C7.4672 35.2111 5.8501 36.6737 5.8501 40.281C5.8501 43.8873 8.7188 46.8302 12.3218 46.9999C12.6527 47.0665 12.9952 47.1016 13.3459 47.1016H22.5115L20.504 51.2307H24.3937L26.4013 47.1016H37.1789L38.1887 48.6051L36.573 51.2308H41.1026L43.0644 48.2056C43.1031 47.4605 43.09 46.0257 43.0771 45.1578C44.7544 43.7107 45.8159 41.5826 45.8159 39.208C45.8156 30.9767 39.0702 24.304 30.7494 24.304Z" fill="#FFA4BC"/>
<path d="M45.1388 34.7783V38.5083C45.1388 41.7834 42.455 44.4384 39.1443 44.4384H11.4186C8.90954 44.4384 6.76178 42.913 5.86816 40.749C6.10389 44.1386 8.87603 46.8378 12.3217 47.0001C12.6525 47.0666 12.9951 47.1018 13.3458 47.1018H22.5114L20.5039 51.2308H24.3936L26.4012 47.1018H37.1788L38.1886 48.6052L36.5729 51.231H41.1024L43.0643 48.2057C43.103 47.4607 43.0899 46.0259 43.077 45.1579C44.7543 43.7109 45.8157 41.5827 45.8157 39.2081C45.8156 37.6656 45.5786 36.1777 45.1388 34.7783Z" fill="#F288A9"/>
<path d="M43.0768 47.4059C43.0781 47.5011 43.0794 47.6041 43.0806 47.7113C43.0826 47.6113 43.0842 47.5059 43.0854 47.3975C43.0825 47.4003 43.0798 47.4032 43.0768 47.4059Z" fill="#FFD2E0"/>
<path d="M30.7494 24.304H26.1744C18.7999 24.304 12.4659 28.7069 9.7094 35C7.4672 35.2111 5.8501 36.6737 5.8501 40.281C5.8501 40.6188 5.87523 40.9509 5.92394 41.2754C6.26403 38.5755 7.74737 37.4323 9.70954 37.2476C12.4661 30.9545 18.8002 26.5515 26.1746 26.5515H30.7496C38.6261 26.5515 45.0897 32.531 45.7576 40.1514C45.795 39.842 45.8157 39.5275 45.8157 39.2079C45.8156 30.9767 39.0702 24.304 30.7494 24.304Z" fill="#FFD2E0"/>
<path d="M22.6935 36.3296C22.5348 31.8264 19.3378 28.2143 15.9366 27.4805C13.2155 29.3556 11.0429 31.9555 9.7094 35.0001C7.4672 35.2113 5.8501 36.6739 5.8501 40.2811C5.8501 43.8875 8.7188 46.8304 12.3218 47.0001C20.2006 47.0001 22.8898 41.8984 22.6935 36.3296Z" fill="#FFC5D7"/>
<path d="M11.4186 44.4384C8.90954 44.4384 6.76178 42.913 5.86816 40.749C6.10389 44.1386 8.87603 46.8378 12.3217 47.0001C15.7831 47.0001 18.2421 46.0149 19.8956 44.4386L19.8959 44.4383H11.4186V44.4384Z" fill="#FFB3CB"/>
<path d="M7.92558 41.1624C7.92558 37.5551 9.54269 36.0924 11.7849 35.8814C13.1184 32.8369 15.291 30.237 18.0121 28.3617C18.0718 28.3747 18.1315 28.3905 18.1911 28.4051C17.4722 27.9641 16.7099 27.6469 15.9366 27.48C13.2155 29.3552 11.0429 31.955 9.7094 34.9997C7.4672 35.2108 5.8501 36.6734 5.8501 40.2806C5.8501 43.448 8.06318 46.1029 11.0428 46.8175C9.16738 45.62 7.92558 43.5349 7.92558 41.1624Z" fill="white"/>
<path d="M6.80064 43.6995H5.70524C3.97255 43.6995 2.56787 42.3099 2.56787 40.5959V39.6024C2.56787 38.4687 3.49698 37.5496 4.64322 37.5496H6.80064C8.38437 37.5496 9.66835 38.8196 9.66835 40.3864V40.8628C9.66835 42.4295 8.38437 43.6995 6.80064 43.6995Z" fill="#FF88A4"/>
<path d="M6.8007 37.5493H4.64328C4.13051 37.5493 3.66191 37.7342 3.2998 38.0391H4.87843C6.20997 38.0391 7.28932 39.1069 7.28932 40.4241V40.8246C7.28932 42.1418 6.20997 43.2095 4.87843 43.2095H4.01464C4.50269 43.5191 5.08263 43.6994 5.70544 43.6994H6.80084C8.38457 43.6994 9.66855 42.4294 9.66855 40.8625V40.3862C9.66841 38.8195 8.38443 37.5493 6.8007 37.5493Z" fill="#D3627F"/>
<path d="M18.1251 51.2309H14.2356L16.1804 47.1018H20.07L18.1251 51.2309Z" fill="#E2748C"/>
<path d="M13.6053 29.9011H9.77509C9.77509 33.1015 10.8071 35.0696 13.6053 35.0696C16.3618 35.0696 17.4355 32.6391 17.4355 29.9011H13.6053Z" fill="#FF88A4"/>
<path d="M13.6053 31.4754H17.3036C17.3926 30.9736 17.4355 30.4437 17.4355 29.9014H13.6053H9.77509C9.77509 30.4661 9.80803 30.9914 9.87633 31.4754H13.6053Z" fill="#FFB6CD"/>
<path d="M49.0395 29.0043C48.9467 28.8793 48.7692 28.8521 48.6425 28.9439C48.516 29.0357 48.4887 29.2115 48.5813 29.3366C48.9103 29.7805 49.1362 30.6157 48.9065 31.2891C48.7321 31.7998 48.329 32.1519 47.7077 32.3362C47.7365 32.2789 47.7615 32.2209 47.782 32.1627C47.9855 31.5878 47.8173 30.7976 47.3909 30.3248C47.0757 29.975 46.6562 29.8376 46.211 29.9372C45.8942 30.0082 45.662 30.246 45.5574 30.6067C45.379 31.2217 45.6048 32.0169 46.0941 32.4974C46.2134 32.6144 46.3446 32.71 46.4855 32.7838C46.4362 32.8105 46.3848 32.8356 46.3314 32.8587C46.0372 32.9854 45.5883 33.0865 45.0344 32.9261C42.5955 27.5198 37.1103 23.7419 30.7494 23.7419H26.1744C21.0375 23.7419 16.3136 25.7292 12.857 29.3391H9.77526C9.46158 29.3391 9.20726 29.5907 9.20726 29.901H5.37707C5.06339 29.901 4.80906 30.1526 4.80906 30.4629C4.80906 33.092 5.48783 34.7852 6.87376 35.6131C6.47474 35.9874 6.14813 36.4473 5.89764 36.9872H4.64321C3.18571 36.9872 2 38.1603 2 39.6021V40.5955C2 42.6166 3.66226 44.261 5.70537 44.261H6.48013C7.76496 46.2089 9.89469 47.4323 12.2493 47.5576C12.609 47.6273 12.9775 47.6635 13.3457 47.6635H15.2892L13.7208 50.9935C13.6388 51.1675 13.6523 51.3708 13.7567 51.5327C13.8609 51.6946 14.0415 51.7926 14.2357 51.7926H18.1254C18.3462 51.7926 18.547 51.666 18.6402 51.468L20.4322 47.6634H21.6079L19.992 50.987C19.9073 51.1612 19.919 51.366 20.0229 51.5296C20.1269 51.6932 20.3085 51.7925 20.5037 51.7925H24.3934C24.6117 51.7925 24.8106 51.6687 24.9052 51.4742L26.758 47.6634H27.598H30.5889L31.2302 48.6181L29.8024 50.9384C29.6957 51.1119 29.6919 51.3288 29.7924 51.5058C29.893 51.6828 30.0824 51.7925 30.2876 51.7925H34.817C35.0104 51.7925 35.1906 51.6951 35.2951 51.534L37.257 48.5088C37.2905 48.4571 37.3139 48.4002 37.3289 48.341L37.515 48.6182L36.0872 50.9385C35.9804 51.112 35.9767 51.3289 36.0773 51.5059C36.1779 51.6829 36.3672 51.7926 36.5724 51.7926H41.102C41.2954 51.7926 41.4756 51.6953 41.5801 51.5341L43.5418 48.5089C43.5951 48.4266 43.6259 48.3321 43.631 48.2343C43.6656 47.5651 43.6604 46.3729 43.6479 45.4049C45.3895 43.8056 46.3833 41.562 46.3833 39.2079C46.3833 37.2133 45.9994 35.3058 45.3014 33.5537C45.4037 33.5661 45.5031 33.5724 45.5983 33.5724C45.9868 33.5724 46.313 33.4794 46.5582 33.3738C46.7934 33.2723 47.0133 33.1319 47.2028 32.9674C47.4104 32.9733 47.6316 32.9442 47.8572 32.8783C48.8727 32.5818 49.2808 31.9481 49.4445 31.4688C49.7527 30.5664 49.4505 29.5587 49.0395 29.0043ZM16.8503 30.4629C16.7553 32.005 16.2005 34.5075 13.6053 34.5075C12.1592 34.5075 10.5096 34.0327 10.3549 30.4629H16.8503ZM5.95686 31.0248H9.25611C9.34117 31.9696 9.53912 32.7707 9.84953 33.4262C9.66294 33.7712 9.48487 34.1239 9.32058 34.4814C8.82514 34.5561 8.37215 34.692 7.96134 34.883C6.70989 34.4523 6.051 33.1882 5.95686 31.0248ZM3.20161 41.1585C3.23754 41.1634 3.27389 41.1668 3.3111 41.1668H3.57905C4.0194 41.1668 4.37624 40.8136 4.37624 40.3782C4.37624 39.9427 4.0194 39.5896 3.57905 39.5896H3.3111C3.25089 39.5896 3.19238 39.5967 3.13587 39.6092V39.6021C3.13587 38.7799 3.81207 38.1109 4.64306 38.1109H6.80049C8.06855 38.1109 9.10019 39.1315 9.10019 40.3859V40.8624C9.10019 42.1168 8.06855 43.1374 6.80049 43.1374H5.70523C4.48431 43.1374 3.46147 42.2896 3.20161 41.1585ZM7.77575 44.1208C9.19661 43.7039 10.2362 42.4014 10.2362 40.8624V40.3859C10.2362 38.6366 8.8933 37.1924 7.17395 37.0077C7.72591 36.1477 8.57891 35.6708 9.76305 35.5594C9.92891 35.5438 10.0764 35.4564 10.1709 35.3252C10.1937 35.2935 10.2143 35.26 10.2304 35.2235C10.2872 35.094 10.3461 34.9649 10.4065 34.8362C10.4603 34.7215 10.5154 34.6073 10.5717 34.4935C11.2968 35.2499 12.3087 35.6315 13.6053 35.6315C16.3594 35.6315 18.0035 33.4892 18.0035 29.9011C18.0035 29.5908 17.7492 29.3392 17.4355 29.3392H14.4961C14.9918 28.8935 15.511 28.4725 16.054 28.0864C18.9627 28.8486 21.9751 32.0773 22.1257 36.3491C22.2033 38.5526 21.8439 41.6423 19.6906 43.848C18.0152 45.5642 15.5406 46.4355 12.3353 46.4381C10.5326 46.3494 8.8835 45.4983 7.77575 44.1208ZM17.7632 50.6688H16.8198L17.4107 49.4037C17.4764 49.2628 17.4144 49.096 17.2719 49.0309C17.1298 48.9659 16.9607 49.0273 16.8951 49.1682L16.1941 50.669H15.127L16.5425 47.6637H19.1787L17.7632 50.6688ZM34.5066 50.6688H33.3158L33.9066 49.4037C33.9725 49.2628 33.9103 49.096 33.7679 49.0309C33.6258 48.9659 33.4568 49.0273 33.391 49.1682L32.6901 50.669H31.2984L32.3886 48.8973C32.5034 48.7111 32.4985 48.4759 32.3766 48.2943L31.9531 47.6638H36.2288C36.2261 47.7988 36.2227 47.9224 36.2185 48.0298L34.5066 50.6688ZM42.7035 44.7343C42.5775 44.8428 42.5064 45.0007 42.5088 45.1659C42.52 45.9238 42.5332 47.259 42.5034 48.0295L40.7917 50.669H39.5881L40.1788 49.4039C40.2447 49.263 40.1825 49.0961 40.0401 49.031C39.8979 48.966 39.729 49.0274 39.6632 49.1683L38.9624 50.6691H37.5832L38.6735 48.8975C38.7881 48.7112 38.7834 48.476 38.6614 48.2944L37.6518 46.7911C37.5465 46.6343 37.3689 46.54 37.1786 46.54H27.598H26.4009H25.4147C25.101 46.54 24.8467 46.7916 24.8467 47.1019C24.8467 47.4122 25.101 47.6638 25.4147 47.6638H25.4975L24.0363 50.6691H23.0613L23.6522 49.404C23.7179 49.2631 23.6559 49.0962 23.5134 49.0312C23.3711 48.9662 23.2022 49.0275 23.1366 49.1684L22.4356 50.6692H21.4071L23.0231 47.3457C23.1077 47.1715 23.0961 46.9667 22.9921 46.803C22.8882 46.6394 22.7066 46.5402 22.5113 46.5402H20.0702H17.7304C18.7967 46.0661 19.726 45.4302 20.508 44.629C22.4315 42.6586 23.3836 39.782 23.2612 36.3104C23.1826 34.0795 22.3713 31.8894 20.9767 30.1436C19.9255 28.8275 18.6215 27.8433 17.2219 27.2892C19.8677 25.7091 22.9328 24.8663 26.1745 24.8663H30.7497C38.744 24.8663 45.2478 31.3001 45.2478 39.2085C45.2475 41.3251 44.3203 43.3395 42.7035 44.7343ZM47.2459 31.9772C47.2023 32.1004 47.1178 32.2417 46.9964 32.3795C46.8084 32.3358 46.6406 32.2423 46.4943 32.0987C46.115 31.7263 45.9977 31.1265 46.1034 30.7618C46.1352 30.6524 46.2014 30.5156 46.3365 30.4854C46.3887 30.4737 46.4394 30.4679 46.4885 30.4679C46.6681 30.4679 46.8286 30.5452 46.9672 30.699C47.2517 31.0145 47.3795 31.5999 47.2459 31.9772Z" fill="#402943"/>
<path d="M6.00216 39.5898H5.73421C5.294 39.5898 4.93701 39.943 4.93701 40.3785C4.93701 40.8141 5.294 41.1671 5.73421 41.1671H6.00216C6.44251 41.1671 6.79935 40.8139 6.79935 40.3785C6.79935 39.9429 6.44236 39.5898 6.00216 39.5898Z" fill="#402943"/>
<path d="M12.8523 38.7149C13.166 38.7149 13.4203 38.4633 13.4203 38.153C13.4203 37.8426 13.166 37.5911 12.8523 37.5911C12.5386 37.5911 12.2843 37.8426 12.2843 38.153C12.2843 38.4633 12.5386 38.7149 12.8523 38.7149Z" fill="#402943"/>
<path d="M27.3316 28.1078C27.5778 28.0041 27.7934 27.7875 28.0425 27.7109C28.155 27.6762 28.2719 27.666 28.3819 27.6269C28.6719 27.5238 29.0134 27.5283 29.3085 27.4399C29.7575 27.3053 30.2048 27.2218 30.6823 27.2147C31.47 27.2029 32.2588 27.2147 33.0466 27.2147C33.2719 27.2147 33.4865 27.3098 33.7016 27.3177C33.8838 27.3244 34.104 27.328 34.2767 27.3788C34.4061 27.4169 34.5411 27.3762 34.6641 27.4284C34.7737 27.475 34.8845 27.5482 34.9955 27.5849C35.0862 27.6149 35.1429 27.5669 35.1952 27.6612C35.2251 27.7151 35.2912 27.6928 35.347 27.6956C35.4881 27.7027 35.6882 27.7871 35.8142 27.8406C35.9337 27.8914 36.0407 27.9069 36.1657 27.9437C36.306 27.9849 36.4446 28.1022 36.597 28.1078C36.7231 28.1124 36.8385 28.2528 36.9644 28.3063C37.0802 28.3554 37.2338 28.3826 37.3598 28.3826" stroke="#402943"/>
<path d="M60.168 19.3945H55.8086L55.7852 17.1211H59.5234C60.1641 17.1211 60.6992 17.0312 61.1289 16.8516C61.5586 16.6719 61.8828 16.4102 62.1016 16.0664C62.3281 15.7227 62.4414 15.3047 62.4414 14.8125C62.4414 14.2656 62.3359 13.8203 62.125 13.4766C61.9219 13.1328 61.6016 12.8828 61.1641 12.7266C60.7266 12.5625 60.1719 12.4805 59.5 12.4805H56.8516V27H53.6289V9.9375H59.5C60.4688 9.9375 61.332 10.0312 62.0898 10.2188C62.8555 10.3984 63.5039 10.6797 64.0352 11.0625C64.5664 11.4453 64.9688 11.9258 65.2422 12.5039C65.5234 13.082 65.6641 13.7695 65.6641 14.5664C65.6641 15.2695 65.5 15.918 65.1719 16.5117C64.8516 17.0977 64.3555 17.5742 63.6836 17.9414C63.0195 18.3086 62.1758 18.5195 61.1523 18.5742L60.168 19.3945ZM60.0273 27H54.8594L56.207 24.4688H60.0273C60.668 24.4688 61.1953 24.3633 61.6094 24.1523C62.0312 23.9414 62.3438 23.6523 62.5469 23.2852C62.7578 22.9102 62.8633 22.4805 62.8633 21.9961C62.8633 21.4648 62.7695 21.0039 62.582 20.6133C62.4023 20.2227 62.1133 19.9219 61.7148 19.7109C61.3242 19.5 60.8086 19.3945 60.168 19.3945H56.8164L56.8398 17.1211H61.1055L61.8438 18C62.8281 18.0078 63.6289 18.2031 64.2461 18.5859C64.8711 18.9688 65.332 19.4609 65.6289 20.0625C65.9258 20.6641 66.0742 21.3125 66.0742 22.0078C66.0742 23.1016 65.8359 24.0195 65.3594 24.7617C64.8906 25.5039 64.2031 26.0625 63.2969 26.4375C62.3984 26.8125 61.3086 27 60.0273 27ZM76.1758 23.9883V14.3203H79.293V27H76.3633L76.1758 23.9883ZM76.5742 21.3633L77.5352 21.3398C77.5352 22.1914 77.4414 22.9766 77.2539 23.6953C77.0664 24.4141 76.7734 25.0391 76.375 25.5703C75.9844 26.0938 75.4883 26.5039 74.8867 26.8008C74.2852 27.0898 73.5742 27.2344 72.7539 27.2344C72.1289 27.2344 71.5586 27.1484 71.043 26.9766C70.5273 26.7969 70.082 26.5195 69.707 26.1445C69.3398 25.7617 69.0547 25.2734 68.8516 24.6797C68.6484 24.0781 68.5469 23.3555 68.5469 22.5117V14.3203H71.6406V22.5352C71.6406 22.957 71.6875 23.3086 71.7812 23.5898C71.8828 23.8711 72.0195 24.1016 72.1914 24.2812C72.3711 24.4531 72.5781 24.5781 72.8125 24.6562C73.0547 24.7266 73.3125 24.7617 73.5859 24.7617C74.3359 24.7617 74.9258 24.6133 75.3555 24.3164C75.793 24.0117 76.1055 23.6055 76.293 23.0977C76.4805 22.582 76.5742 22.0039 76.5742 21.3633ZM89.6406 24.3047V9H92.7578V27H89.9453L89.6406 24.3047ZM81.4961 20.8125V20.5664C81.4961 19.5977 81.6055 18.7188 81.8242 17.9297C82.0508 17.1328 82.3789 16.4492 82.8086 15.8789C83.2383 15.3086 83.7578 14.8672 84.3672 14.5547C84.9844 14.2422 85.6836 14.0859 86.4648 14.0859C87.2227 14.0859 87.8828 14.2383 88.4453 14.543C89.0156 14.8477 89.5 15.2812 89.8984 15.8438C90.3047 16.4062 90.6289 17.0742 90.8711 17.8477C91.1133 18.6133 91.2891 19.457 91.3984 20.3789V21.0469C91.2891 21.9453 91.1133 22.7695 90.8711 23.5195C90.6289 24.2695 90.3047 24.9258 89.8984 25.4883C89.5 26.043 89.0156 26.4727 88.4453 26.7773C87.875 27.082 87.207 27.2344 86.4414 27.2344C85.668 27.2344 84.9727 27.0742 84.3555 26.7539C83.7461 26.4336 83.2266 25.9844 82.7969 25.4062C82.375 24.8281 82.0508 24.1484 81.8242 23.3672C81.6055 22.5859 81.4961 21.7344 81.4961 20.8125ZM84.6016 20.5664V20.8125C84.6016 21.3594 84.6484 21.8711 84.7422 22.3477C84.8359 22.8242 84.9883 23.2461 85.1992 23.6133C85.4102 23.9727 85.6797 24.2539 86.0078 24.457C86.3438 24.6602 86.75 24.7617 87.2266 24.7617C87.8359 24.7617 88.3359 24.6289 88.7266 24.3633C89.125 24.0898 89.4336 23.7188 89.6523 23.25C89.8711 22.7734 90.0117 22.2383 90.0742 21.6445V19.8047C90.043 19.3359 89.9609 18.9023 89.8281 18.5039C89.7031 18.1055 89.5234 17.7617 89.2891 17.4727C89.0625 17.1836 88.7812 16.957 88.4453 16.793C88.1094 16.6289 87.7109 16.5469 87.25 16.5469C86.7734 16.5469 86.3672 16.6523 86.0312 16.8633C85.6953 17.0664 85.4219 17.3516 85.2109 17.7188C85 18.0859 84.8438 18.5117 84.7422 18.9961C84.6484 19.4805 84.6016 20.0039 84.6016 20.5664ZM103.621 14.3203H106.434V26.6133C106.434 27.7617 106.184 28.7344 105.684 29.5312C105.191 30.3359 104.5 30.9453 103.609 31.3594C102.719 31.7812 101.684 31.9922 100.504 31.9922C99.9961 31.9922 99.4453 31.9219 98.8516 31.7812C98.2656 31.6406 97.6992 31.418 97.1523 31.1133C96.6133 30.8164 96.1641 30.4297 95.8047 29.9531L97.1992 28.125C97.6211 28.6172 98.0977 28.9883 98.6289 29.2383C99.1602 29.4961 99.7344 29.625 100.352 29.625C100.977 29.625 101.508 29.5078 101.945 29.2734C102.391 29.0469 102.73 28.7109 102.965 28.2656C103.207 27.8281 103.328 27.2891 103.328 26.6484V17.2148L103.621 14.3203ZM95.0547 20.8125V20.5664C95.0547 19.5977 95.1719 18.7188 95.4062 17.9297C95.6406 17.1328 95.9766 16.4492 96.4141 15.8789C96.8594 15.3086 97.3945 14.8672 98.0195 14.5547C98.6523 14.2422 99.3633 14.0859 100.152 14.0859C100.988 14.0859 101.691 14.2383 102.262 14.543C102.84 14.8477 103.316 15.2812 103.691 15.8438C104.074 16.4062 104.371 17.0742 104.582 17.8477C104.801 18.6133 104.969 19.457 105.086 20.3789V21.0469C104.977 21.9453 104.801 22.7695 104.559 23.5195C104.324 24.2695 104.012 24.9258 103.621 25.4883C103.23 26.043 102.746 26.4727 102.168 26.7773C101.59 27.082 100.91 27.2344 100.129 27.2344C99.3477 27.2344 98.6445 27.0742 98.0195 26.7539C97.3945 26.4336 96.8594 25.9844 96.4141 25.4062C95.9766 24.8281 95.6406 24.1484 95.4062 23.3672C95.1719 22.5859 95.0547 21.7344 95.0547 20.8125ZM98.1484 20.5664V20.8125C98.1484 21.3594 98.2031 21.8711 98.3125 22.3477C98.4219 22.8242 98.5898 23.2461 98.8164 23.6133C99.043 23.9727 99.3281 24.2539 99.6719 24.457C100.016 24.6602 100.426 24.7617 100.902 24.7617C101.543 24.7617 102.066 24.6289 102.473 24.3633C102.887 24.0898 103.199 23.7188 103.41 23.25C103.629 22.7734 103.77 22.2383 103.832 21.6445V19.8047C103.793 19.3359 103.707 18.9023 103.574 18.5039C103.449 18.1055 103.273 17.7617 103.047 17.4727C102.82 17.1836 102.531 16.957 102.18 16.793C101.828 16.6289 101.41 16.5469 100.926 16.5469C100.457 16.5469 100.047 16.6523 99.6953 16.8633C99.3438 17.0664 99.0547 17.3516 98.8281 17.7188C98.6016 18.0859 98.4297 18.5117 98.3125 18.9961C98.2031 19.4805 98.1484 20.0039 98.1484 20.5664ZM114.918 27.2344C113.957 27.2344 113.094 27.0781 112.328 26.7656C111.562 26.4531 110.91 26.0195 110.371 25.4648C109.84 24.9023 109.43 24.25 109.141 23.5078C108.859 22.7578 108.719 21.9531 108.719 21.0938V20.625C108.719 19.6484 108.859 18.7617 109.141 17.9648C109.422 17.1602 109.82 16.4688 110.336 15.8906C110.852 15.3125 111.469 14.8672 112.188 14.5547C112.906 14.2422 113.699 14.0859 114.566 14.0859C115.465 14.0859 116.258 14.2383 116.945 14.543C117.633 14.8398 118.207 15.2617 118.668 15.8086C119.129 16.3555 119.477 17.0117 119.711 17.7773C119.945 18.5352 120.062 19.375 120.062 20.2969V21.5977H110.125V19.4648H117.016V19.2305C117 18.7383 116.906 18.2891 116.734 17.8828C116.562 17.4688 116.297 17.1406 115.938 16.8984C115.578 16.6484 115.113 16.5234 114.543 16.5234C114.082 16.5234 113.68 16.625 113.336 16.8281C113 17.0234 112.719 17.3047 112.492 17.6719C112.273 18.0312 112.109 18.4609 112 18.9609C111.891 19.4609 111.836 20.0156 111.836 20.625V21.0938C111.836 21.625 111.906 22.1172 112.047 22.5703C112.195 23.0234 112.41 23.418 112.691 23.7539C112.98 24.082 113.324 24.3398 113.723 24.5273C114.129 24.707 114.59 24.7969 115.105 24.7969C115.754 24.7969 116.34 24.6719 116.863 24.4219C117.395 24.1641 117.855 23.7852 118.246 23.2852L119.805 24.9023C119.539 25.293 119.18 25.668 118.727 26.0273C118.281 26.3867 117.742 26.6797 117.109 26.9062C116.477 27.125 115.746 27.2344 114.918 27.2344ZM128.137 14.3203V16.5469H120.871V14.3203H128.137ZM122.816 11.2031H125.922V23.3438C125.922 23.7188 125.973 24.0078 126.074 24.2109C126.176 24.4141 126.328 24.5508 126.531 24.6211C126.734 24.6914 126.977 24.7266 127.258 24.7266C127.461 24.7266 127.648 24.7148 127.82 24.6914C127.992 24.668 128.137 24.6445 128.254 24.6211L128.266 26.9414C128.008 27.0273 127.715 27.0977 127.387 27.1523C127.066 27.207 126.703 27.2344 126.297 27.2344C125.602 27.2344 124.992 27.1172 124.469 26.8828C123.945 26.6406 123.539 26.2539 123.25 25.7227C122.961 25.1836 122.816 24.4727 122.816 23.5898V11.2031ZM60.4141 37.5273L55.5508 52H52.1406L58.5156 34.9375H60.6953L60.4141 37.5273ZM64.4805 52L59.5938 37.5273L59.3008 34.9375H61.4922L67.9023 52H64.4805ZM64.2578 45.6602V48.2031H55.1055V45.6602H64.2578ZM72.2148 41.7578V56.875H69.1094V39.3203H71.9805L72.2148 41.7578ZM80.3594 45.5312V45.7773C80.3594 46.6992 80.25 47.5547 80.0312 48.3438C79.8203 49.125 79.5078 49.8086 79.0938 50.3945C78.6797 50.9727 78.1641 51.4258 77.5469 51.7539C76.9375 52.0742 76.2344 52.2344 75.4375 52.2344C74.6562 52.2344 73.9766 52.0859 73.3984 51.7891C72.8203 51.4844 72.332 51.0547 71.9336 50.5C71.5352 49.9453 71.2148 49.3008 70.9727 48.5664C70.7383 47.8242 70.5625 47.0156 70.4453 46.1406V45.3555C70.5625 44.4258 70.7383 43.582 70.9727 42.8242C71.2148 42.0586 71.5352 41.3984 71.9336 40.8438C72.332 40.2812 72.8164 39.8477 73.3867 39.543C73.9648 39.2383 74.6406 39.0859 75.4141 39.0859C76.2188 39.0859 76.9258 39.2383 77.5352 39.543C78.1523 39.8477 78.6719 40.2852 79.0938 40.8555C79.5156 41.4258 79.832 42.1055 80.043 42.8945C80.2539 43.6836 80.3594 44.5625 80.3594 45.5312ZM77.2539 45.7773V45.5312C77.2539 44.9688 77.2031 44.4492 77.1016 43.9727C77 43.4883 76.8438 43.0664 76.6328 42.707C76.4219 42.3398 76.1484 42.0547 75.8125 41.8516C75.4766 41.6484 75.0703 41.5469 74.5938 41.5469C74.1172 41.5469 73.707 41.625 73.3633 41.7812C73.0195 41.9375 72.7383 42.1602 72.5195 42.4492C72.3008 42.7383 72.1289 43.082 72.0039 43.4805C71.8867 43.8711 71.8086 44.3047 71.7695 44.7812V46.7266C71.8398 47.3047 71.9766 47.8242 72.1797 48.2852C72.3828 48.7461 72.6797 49.1133 73.0703 49.3867C73.4688 49.6602 73.9844 49.7969 74.6172 49.7969C75.0938 49.7969 75.5 49.6914 75.8359 49.4805C76.1719 49.2695 76.4453 48.9805 76.6562 48.6133C76.8672 48.2383 77.0195 47.8086 77.1133 47.3242C77.207 46.8398 77.2539 46.3242 77.2539 45.7773ZM85.7148 41.7578V56.875H82.6094V39.3203H85.4805L85.7148 41.7578ZM93.8594 45.5312V45.7773C93.8594 46.6992 93.75 47.5547 93.5312 48.3438C93.3203 49.125 93.0078 49.8086 92.5938 50.3945C92.1797 50.9727 91.6641 51.4258 91.0469 51.7539C90.4375 52.0742 89.7344 52.2344 88.9375 52.2344C88.1562 52.2344 87.4766 52.0859 86.8984 51.7891C86.3203 51.4844 85.832 51.0547 85.4336 50.5C85.0352 49.9453 84.7148 49.3008 84.4727 48.5664C84.2383 47.8242 84.0625 47.0156 83.9453 46.1406V45.3555C84.0625 44.4258 84.2383 43.582 84.4727 42.8242C84.7148 42.0586 85.0352 41.3984 85.4336 40.8438C85.832 40.2812 86.3164 39.8477 86.8867 39.543C87.4648 39.2383 88.1406 39.0859 88.9141 39.0859C89.7188 39.0859 90.4258 39.2383 91.0352 39.543C91.6523 39.8477 92.1719 40.2852 92.5938 40.8555C93.0156 41.4258 93.332 42.1055 93.543 42.8945C93.7539 43.6836 93.8594 44.5625 93.8594 45.5312ZM90.7539 45.7773V45.5312C90.7539 44.9688 90.7031 44.4492 90.6016 43.9727C90.5 43.4883 90.3438 43.0664 90.1328 42.707C89.9219 42.3398 89.6484 42.0547 89.3125 41.8516C88.9766 41.6484 88.5703 41.5469 88.0938 41.5469C87.6172 41.5469 87.207 41.625 86.8633 41.7812C86.5195 41.9375 86.2383 42.1602 86.0195 42.4492C85.8008 42.7383 85.6289 43.082 85.5039 43.4805C85.3867 43.8711 85.3086 44.3047 85.2695 44.7812V46.7266C85.3398 47.3047 85.4766 47.8242 85.6797 48.2852C85.8828 48.7461 86.1797 49.1133 86.5703 49.3867C86.9688 49.6602 87.4844 49.7969 88.1172 49.7969C88.5938 49.7969 89 49.6914 89.3359 49.4805C89.6719 49.2695 89.9453 48.9805 90.1562 48.6133C90.3672 48.2383 90.5195 47.8086 90.6133 47.3242C90.707 46.8398 90.7539 46.3242 90.7539 45.7773Z" fill="#F9F9F9"/>
</svg>
